HIERARCHY
ROOT Hips
{
	OFFSET 0.000000 0.000000 0.000000
	CHANNELS 6 Xposition Yposition Zposition Zrotation Yrotation Xrotation 
	JOINT LHipJoint
	{
		OFFSET 0.000000 0.000000 0.000000
		CHANNELS 3 Zrotation Yrotation Xrotation
		JOINT LeftUpLeg
		{
			OFFSET 1.363060 -1.794630 0.839290
			CHANNELS 3 Zrotation Yrotation Xrotation
			JOINT LeftLeg
			{
				OFFSET 2.448110 -6.726130 0.000000
				CHANNELS 3 Zrotation Yrotation Xrotation
				JOINT LeftFoot
				{
					OFFSET 2.562200 -7.039590 0.000000
					CHANNELS 3 Zrotation Yrotation Xrotation
					JOINT LeftToeBase
					{
						OFFSET 0.157640 -0.433110 2.322550
						CHANNELS 3 Zrotation Yrotation Xrotation
						End Site
						{
							OFFSET 0.000000 0.000000 0.000000
						}
					}
				}
			}
		}
	}
	JOINT RHipJoint
	{
		OFFSET 0.000000 0.000000 0.000000
		CHANNELS 3 Zrotation Yrotation Xrotation
		JOINT RightUpLeg
		{
			OFFSET -1.305520 -1.794630 0.839290
			CHANNELS 3 Zrotation Yrotation Xrotation
			JOINT RightLeg
			{
				OFFSET -2.542530 -6.985550 0.000000
				CHANNELS 3 Zrotation Yrotation Xrotation
				JOINT RightFoot
				{
					OFFSET -2.568260 -7.056230 0.000000
					CHANNELS 3 Zrotation Yrotation Xrotation
					JOINT RightToeBase
					{
						OFFSET -0.164730 -0.452590 2.363150
						CHANNELS 3 Zrotation Yrotation Xrotation
						End Site
						{
							OFFSET 0.000000 0.000000 0.000000
						}
					}
				}
			}
		}
	}
}
MOTION
Frames: 30
Frame Time: 0.008333
-2.894152 16.480502 0.059281 3.102429 45.047037 6.967985 -9.721103 0.712614 2.199422 -0.533735 1.123118 -30.300536 -1.616766 1.222781 32.405453 0.450435 1.008299 -6.793374 -0.007700 -0.000001 -42.261600 10.571584 -3.123026 -0.737673 10.021712 -4.201793 0.594177 1.617322 -2.938021 40.231125 0.473077 7.502918 -12.138033 -0.497601 0.000000 -41.190700
-2.753900 16.467888 0.133355 3.216865 43.168013 6.860394 -9.759874 0.853092 1.937633 -0.885242 2.577907 -29.675756 -1.620204 1.277005 33.130133 0.474804 1.258880 -6.696298 -0.007300 -0.000000 -42.350800 10.893301 -3.189444 -0.711138 8.759726 -4.597569 -1.254702 1.201465 -3.214185 44.073107 0.433587 6.940821 -10.885019 -0.372000 0.000000 -45.416900
-2.617937 16.454548 0.209319 3.367677 41.256985 6.801921 -9.786471 0.992339 1.653227 -1.299659 4.236991 -29.094597 -1.649431 1.319863 33.761626 0.503898 1.527472 -6.787023 -0.014600 -0.000000 -42.590400 11.202510 -3.213332 -0.661232 7.566762 -4.898429 -3.243612 0.775796 -3.450654 47.883545 0.306356 5.761205 -9.930025 -0.239300 -0.000000 -47.972200
-2.486041 16.440616 0.286729 3.534251 39.331096 6.774946 -9.802224 1.128597 1.357248 -1.739002 6.028532 -28.546875 -1.701424 1.352043 34.302699 0.538085 1.815515 -7.077457 -0.032500 0.000000 -42.958100 11.492029 -3.193332 -0.596098 6.470427 -5.127151 -5.342168 0.361492 -3.651719 51.596268 0.102923 4.049638 -9.341100 -0.129600 0.000000 -48.472400
-2.357845 16.426358 0.365133 3.700230 37.406871 6.764167 -9.809437 1.260778 1.059916 -2.172707 7.879076 -28.016980 -1.771808 1.374654 34.760821 0.577815 2.123748 -7.560973 -0.064500 0.000000 -43.407000 11.756453 -3.131218 -0.523824 5.488954 -5.314186 -7.522905 -0.021648 -3.823662 55.151806 -0.160641 1.959631 -9.184821 -0.048500 -0.000000 -46.659599
-2.232839 16.412114 0.444166 3.853762 35.499163 6.757316 -9.810968 1.388445 0.770513 -2.577509 9.717178 -27.485546 -1.854994 1.388879 35.144558 0.623843 2.454831 -8.213870 -0.113101 -0.000000 -43.875700 11.991450 -3.031797 -0.452026 4.634699 -5.492063 -9.759847 -0.357075 -3.973542 58.493083 -0.462235 -0.306618 -9.508246 0.026200 0.000000 -42.538400
-2.110434 16.398272 0.523536 3.986412 33.621529 6.744243 -9.809876 1.511621 0.496825 -2.937525 11.477927 -26.931560 -1.944494 1.395875 35.461465 0.677281 2.815440 -8.998613 -0.180601 -0.000000 -44.301000 12.193495 -2.901854 -0.386939 3.916598 -5.689278 -12.026436 -0.635547 -4.107218 61.556382 -0.775389 -2.536516 -10.275085 0.132900 -0.000000 -36.893700
-1.990088 16.385293 0.603123 4.092937 31.786424 6.716781 -9.809293 1.630689 0.244996 -3.242553 13.107355 -26.334776 -2.033487 1.396687 35.717086 0.739195 3.214520 -9.868497 -0.267800 0.000000 -44.633200 12.359638 -2.749511 -0.334038 3.342831 -5.926940 -14.296119 -0.851106 -4.229406 64.294564 -1.070902 -4.523549 -11.434922 0.303100 0.000001 -30.306301
-1.871339 16.373601 0.682930 4.170126 30.005098 6.668217 -9.811799 1.746060 0.018514 -3.488362 14.566255 -25.677557 -2.115586 1.392381 35.914341 0.810490 3.662996 -10.773601 -0.375100 0.000000 -44.844100 12.488403 -2.582400 -0.296361 2.920710 -6.215644 -16.540222 -1.007698 -4.341343 66.658831 -1.322836 -6.116988 -12.797048 0.534200 -0.000000 -24.316901
-1.753835 16.363583 0.763100 4.217048 28.288239 6.590934 -9.819795 1.858438 -0.181056 -3.673701 15.832247 -24.944395 -2.185376 1.383901 36.052826 0.891403 4.169848 -11.665251 -0.501200 0.000000 -44.934099 12.579045 -2.408519 -0.278052 2.657170 -6.564861 -18.730128 -1.106950 -4.443958 68.633705 -1.508616 -7.200474 -14.243578 0.796200 -0.000000 -19.391500
-1.637466 16.355523 0.843836 4.234490 26.644916 6.476749 -9.834696 1.968625 -0.354718 -3.800115 16.900788 -24.122680 -2.239172 1.372180 36.128901 0.981398 4.740044 -12.501475 -0.644000 -0.000000 -44.928199 12.632338 -2.234925 -0.283344 2.557038 -6.982670 -20.837145 -1.151620 -4.537057 70.215437 -1.613407 -7.712983 -15.664980 1.040400 0.000000 -15.780400
-1.522155 16.349619 0.925442 4.224555 25.083041 6.318421 -9.857185 2.077416 -0.505420 -3.870552 17.782841 -23.202648 -2.275140 1.358010 36.135910 1.079197 5.373388 -13.249324 -0.799700 -0.000000 -44.869600 12.650197 -2.067633 -0.315718 2.621672 -7.474708 -22.834793 -1.144792 -4.619871 71.409459 -1.631689 -7.647551 -16.977067 1.216500 -0.000001 -13.439300
-1.408008 16.346018 1.008234 4.190547 23.608736 6.110545 -9.887043 2.185311 -0.637485 -3.889049 18.501610 -22.179167 -2.293416 1.341934 36.064906 1.182898 6.063389 -13.887547 -0.963400 -0.000000 -44.808900 12.635700 -1.911214 -0.376537 2.848221 -8.041664 -24.700636 -1.091953 -4.690942 72.225013 -1.567797 -7.053201 -18.094952 1.284300 -0.000000 -12.356800
-1.295183 16.344719 1.092512 4.136872 22.225686 5.851511 -9.923360 2.292489 -0.755809 -3.860059 19.087947 -21.051912 -2.295711 1.324152 35.905821 1.290282 6.798681 -14.405827 -1.129500 -0.000000 -44.793900 12.592706 -1.768544 -0.464969 3.229336 -8.680489 -26.419730 -1.001284 -4.748445 72.675115 -1.435191 -6.030072 -18.938790 1.225800 0.000000 -12.600299
-1.183948 16.345655 1.178618 4.068451 20.936022 5.543420 -9.964455 2.398948 -0.864810 -3.788604 19.575240 -19.826038 -2.284893 1.304505 35.650054 1.398899 7.562741 -14.804898 -1.292300 -0.000000 -44.859901 12.525569 -1.640864 -0.578483 3.754114 -9.387193 -27.986957 -0.882801 -4.790764 72.778546 -1.254735 -4.718815 -19.451516 1.053200 -0.000000 -14.260100
-1.074488 16.348634 1.266818 3.989528 19.740325 5.191597 -10.008515 2.504540 -0.967676 -3.679122 19.994783 -18.510550 -2.264250 1.282444 35.291096 1.506266 8.335973 -15.093329 -1.446400 0.000000 -45.025500 12.438060 -1.528196 -0.714002 4.410057 -10.159727 -29.407282 -0.746018 -4.817033 72.559982 -1.052313 -3.285441 -19.622916 0.807000 0.000001 -17.288300
-0.967034 16.353357 1.357324 3.903929 18.636610 4.804244 -10.053397 2.609278 -1.066489 -3.535263 20.374551 -17.118073 -2.237302 1.257396 34.826301 1.609764 9.096148 -15.284728 -1.587200 0.000000 -45.293501 12.333297 -1.429675 -0.868976 5.186567 -10.999074 -30.694216 -0.598363 -4.827427 72.050195 -0.855055 -1.901330 -19.494025 0.542300 -0.000001 -21.487700
-0.861741 16.359503 1.450325 3.813051 17.622193 4.389711 -10.097928 2.713347 -1.161026 -3.357657 20.735774 -15.663463 -2.206942 1.228695 34.257923 1.706674 9.820006 -15.394371 -1.710700 -0.000001 -45.648600 12.212255 -1.345276 -1.041616 6.077213 -11.909349 -31.867428 -0.441342 -4.823803 71.289849 -0.687662 -0.715548 -19.190051 0.312100 0.000000 -26.124299
-0.758716 16.366664 1.545934 3.716124 16.690769 3.959283 -10.141027 2.816970 -1.250694 -3.145543 21.094050 -14.165512 -2.175899 1.196338 33.594190 1.794103 10.483716 -15.436802 -1.813800 0.000001 -46.068500 12.075169 -1.274748 -1.230157 7.079429 -12.890757 -32.949403 -0.275271 -4.808043 70.317468 -0.568549 0.154244 -18.831364 0.150300 -0.000000 -30.629600
-0.657986 16.374413 1.644180 3.610968 15.836165 3.523303 -10.182734 2.920647 -1.333235 -2.896890 21.457864 -12.644188 -2.145929 1.160519 32.848838 1.869274 11.065941 -15.423444 -1.893900 -0.000000 -46.526200 11.920749 -1.219625 -1.432114 8.193446 -13.940120 -33.961450 -0.096312 -4.782623 69.174568 -0.509083 0.643690 -18.569466 0.070800 0.000000 -34.169300
-0.559613 16.382349 1.745073 3.494759 15.049958 3.093293 -10.223249 3.024859 -1.406419 -2.610452 21.829342 -11.121255 -2.118271 1.122048 32.040500 1.929688 11.548896 -15.361936 -1.949100 0.000000 -46.996999 11.747748 -1.181310 -1.643352 9.419152 -15.046561 -34.922216 0.097823 -4.748624 67.889309 -0.513672 0.734851 -18.495114 0.072700 0.000000 -36.369100
-0.463515 16.390048 1.848604 3.364202 14.323332 2.681769 -10.263034 3.129892 -1.468483 -2.287035 22.204917 -9.619052 -2.093599 1.082242 31.191185 1.973633 11.921391 -15.256457 -1.977901 -0.000000 -47.464600 11.555079 -1.160929 -1.858626 10.755410 -16.192294 -35.846833 0.308706 -4.705942 66.478006 -0.581168 0.457625 -18.653147 0.149400 0.000001 -37.121000
-0.369751 16.397122 1.954751 3.216770 13.647691 2.299594 -10.302733 3.235964 -1.517744 -1.929250 22.577004 -8.158961 -2.071989 1.042640 30.325371 2.000273 12.178955 -15.109020 -1.980099 -0.000000 -47.923301 11.342088 -1.159732 -2.071287 12.198909 -17.353074 -36.745334 0.538193 -4.653751 64.951705 -0.705885 -0.113724 -19.067632 0.292500 -0.000000 -36.317200
-0.278411 16.403236 2.063454 3.051755 13.014925 1.955920 -10.342449 3.343112 -1.552990 -1.543040 22.935326 -6.759983 -2.052943 1.004752 29.467473 2.009981 12.325569 -14.919922 -1.956700 -0.000000 -48.376601 11.109447 -1.178531 -2.273053 13.741923 -18.498677 -37.623255 0.786290 -4.590389 63.313365 -0.877992 -0.880176 -19.717918 0.493700 0.000000 -34.096200
-0.189621 16.408059 2.174680 2.869713 12.416834 1.660026 -10.381998 3.450949 -1.574299 -1.137853 23.269034 -5.439455 -2.035925 0.970131 28.640503 2.004398 12.372738 -14.690920 -1.910201 0.000000 -48.838899 10.859146 -1.216986 -2.454985 15.372035 -19.592171 -38.481386 1.050512 -4.513585 61.561107 -1.083924 -1.735753 -20.542489 0.741200 0.000000 -30.828600
-0.103538 16.411292 2.288389 2.672291 11.845158 1.419285 -10.421051 3.558567 -1.583188 -0.724210 23.569676 -4.211272 -2.020341 0.940135 27.864325 1.986189 12.338110 -14.425423 -1.844400 0.000000 -49.331000 10.594546 -1.273747 -2.608120 17.071362 -20.591971 -39.314515 1.326050 -4.420992 59.691805 -1.307476 -2.583963 -21.451455 1.017400 -0.000000 -27.063900
-0.020361 16.412705 2.404518 2.464268 11.293482 1.239267 -10.458382 3.665008 -1.581442 -0.316495 23.830191 -3.084758 -2.005450 0.915439 27.153420 1.958972 12.244832 -14.128623 -1.764300 0.000000 -49.879200 10.320677 -1.346675 -2.723236 18.814348 -21.454328 -40.113020 1.606750 -4.310842 57.704310 -1.531660 -3.348626 -22.345529 1.297900 -0.000000 -23.367600
0.059641 16.412108 2.523018 2.252185 10.756398 1.123994 -10.492510 3.769097 -1.571907 0.070964 24.048407 -2.065303 -1.990791 0.896260 26.517304 1.926608 12.117207 -13.807882 -1.675500 0.000000 -50.505600 10.043680 -1.432531 -2.792312 20.568810 -22.135387 -40.861624 1.885785 -4.182018 55.601166 -1.741059 -3.981349 -23.128839 1.555800 -0.000000 -20.315600
0.136292 16.409337 2.643844 2.042975 10.229613 1.075858 -10.521951 3.869461 -1.558355 0.424990 24.227297 -1.154038 -1.976214 0.882317 25.959943 1.892748 11.977911 -13.472072 -1.582999 0.000000 -51.224899 9.769832 -1.526944 -2.809369 22.297359 -22.594224 -41.541703 2.157931 -4.034186 53.390343 -1.924632 -4.459582 -23.738679 1.768600 0.000000 -18.261300
0.209460 16.404284 2.766890 1.844870 9.712021 1.093949 -10.544644 3.965074 -1.543892 0.733117 24.371648 -0.346552 -1.961442 0.872706 25.479587 1.860592 11.847263 -13.128659 -1.490900 -0.000000 -52.044100 9.505567 -1.624833 -2.769859 23.955553 -22.797063 -42.131751 2.420216 -3.867599 51.085605 -2.077138 -4.782503 -24.154752 1.924100 -0.000000 -17.258199
